<mxfile host="app.diagrams.net" modified="2023-10-12T20:22:00.423Z" agent="Mozilla/5.0 (Macintosh; Intel Mac OS X 10_15_7) AppleWebKit/537.36 (KHTML, like Gecko) Chrome/117.0.0.0 Safari/537.36" etag="9jkLh4lP-ikjmt8jzXjg" version="22.0.4" type="github">
  <diagram name="Page-1" id="2cc2dc42-3aac-f2a9-1cec-7a8b7cbee084">
    <mxGraphModel dx="1314" dy="846" grid="1" gridSize="10" guides="1" tooltips="1" connect="1" arrows="1" fold="1" page="1" pageScale="1" pageWidth="1100" pageHeight="850" background="none" math="0" shadow="0">
      <root>
        <mxCell id="0" />
        <mxCell id="1" parent="0" />
        <mxCell id="9ojO89YkpDaJ2Ne-Ip_w-1" value="Collection Name: Software Engineering" style="strokeWidth=1;shadow=0;dashed=0;align=center;html=1;shape=mxgraph.mockup.containers.rrect;rSize=0;strokeColor=#666666;fontColor=#666666;fontSize=17;verticalAlign=top;whiteSpace=wrap;fillColor=#ffffff;spacingTop=32;" vertex="1" parent="1">
          <mxGeometry x="300" y="210" width="370" height="207.2" as="geometry" />
        </mxCell>
        <mxCell id="9ojO89YkpDaJ2Ne-Ip_w-2" value="Collection Details" style="strokeWidth=1;shadow=0;dashed=0;align=center;html=1;shape=mxgraph.mockup.containers.rrect;rSize=0;fontSize=17;fontColor=#666666;strokeColor=#666666;align=left;spacingLeft=8;fillColor=none;resizeWidth=1;whiteSpace=wrap;" vertex="1" parent="9ojO89YkpDaJ2Ne-Ip_w-1">
          <mxGeometry width="370" height="30" relative="1" as="geometry" />
        </mxCell>
        <mxCell id="9ojO89YkpDaJ2Ne-Ip_w-3" value="" style="shape=ellipse;strokeColor=#008cff;resizable=0;fillColor=none;html=1;" vertex="1" parent="9ojO89YkpDaJ2Ne-Ip_w-2">
          <mxGeometry x="1" y="0.5" width="20" height="20" relative="1" as="geometry">
            <mxPoint x="-25" y="-10" as="offset" />
          </mxGeometry>
        </mxCell>
        <mxCell id="9ojO89YkpDaJ2Ne-Ip_w-4" value="Cancel" style="strokeWidth=1;shadow=0;dashed=0;align=center;html=1;shape=mxgraph.mockup.containers.rrect;rSize=0;fontSize=16;fontColor=#666666;strokeColor=#c4c4c4;whiteSpace=wrap;fillColor=none;" vertex="1" parent="9ojO89YkpDaJ2Ne-Ip_w-1">
          <mxGeometry x="0.25" y="1" width="90" height="25" relative="1" as="geometry">
            <mxPoint x="-45" y="-33" as="offset" />
          </mxGeometry>
        </mxCell>
        <mxCell id="9ojO89YkpDaJ2Ne-Ip_w-5" value="OK" style="strokeWidth=1;shadow=0;dashed=0;align=center;html=1;shape=mxgraph.mockup.containers.rrect;rSize=0;fontSize=16;fontColor=#666666;strokeColor=#c4c4c4;whiteSpace=wrap;fillColor=none;" vertex="1" parent="9ojO89YkpDaJ2Ne-Ip_w-1">
          <mxGeometry x="0.75" y="1" width="90" height="25" relative="1" as="geometry">
            <mxPoint x="-45" y="-33" as="offset" />
          </mxGeometry>
        </mxCell>
        <mxCell id="9ojO89YkpDaJ2Ne-Ip_w-11" value="&lt;font style=&quot;font-size: 18px;&quot;&gt;Type: EBook&lt;/font&gt;" style="text;html=1;strokeColor=none;fillColor=none;align=center;verticalAlign=middle;whiteSpace=wrap;rounded=0;" vertex="1" parent="1">
          <mxGeometry x="210" y="270" width="370" height="30" as="geometry" />
        </mxCell>
      </root>
    </mxGraphModel>
  </diagram>
</mxfile>
